P3
2 2
255
101
90
58
103
120
62
110
110
110
146
118
150